<svg width="215" height="33" viewBox="0 0 215 33" fill="none" xmlns="http://www.w3.org/2000/svg">
<g clip-path="url(#clip0_56_91)">
<path opacity="0.5" d="M214.177 3.14129C214.706 3.29802 215.009 3.85438 214.852 4.38396L212.298 13.014C212.141 13.5435 211.585 13.8458 211.055 13.6891C210.526 13.5323 210.223 12.976 210.38 12.4464L212.65 4.77529L204.979 2.50505C204.45 2.34832 204.147 1.79196 204.304 1.26238C204.461 0.7328 205.017 0.430544 205.547 0.587271L214.177 3.14129ZM2.04947 1.20621C2.81447 1.73242 3.61229 2.26437 4.44226 2.80071L3.35675 4.48049C2.51123 3.9341 1.6974 3.3915 0.916016 2.85402L2.04947 1.20621ZM9.40099 5.82964C11.0095 6.76048 12.7066 7.69662 14.4889 8.63161L13.5597 10.4027C11.7537 9.45524 10.0323 8.50578 8.39923 7.56068L9.40099 5.82964ZM19.7035 11.2434C21.4109 12.06 23.1817 12.871 25.0137 13.672L24.2125 15.5045C22.36 14.6946 20.5685 13.8741 18.8405 13.0476L19.7035 11.2434ZM30.39 15.9204C32.1554 16.6262 33.9692 17.3203 35.8296 17.9994L35.1439 19.8781C33.2644 19.1921 31.4317 18.4908 29.6475 17.7775L30.39 15.9204ZM41.3334 19.9167C43.1482 20.5194 45.002 21.1063 46.8934 21.6748L46.3177 23.5901C44.4079 23.0161 42.5359 22.4234 40.7031 21.8148L41.3334 19.9167ZM52.5037 23.2752C54.3564 23.7758 56.2413 24.2576 58.1573 24.7186L57.6895 26.6631C55.7554 26.1978 53.8525 25.7113 51.9821 25.206L52.5037 23.2752ZM63.8376 26.0029C65.7158 26.4005 67.6209 26.7773 69.5521 27.1313L69.1914 29.0985C67.2422 28.7412 65.3192 28.3609 63.4233 27.9595L63.8376 26.0029ZM75.2974 28.1039C77.1989 28.3992 79.1235 28.6719 81.0701 28.9202L80.8171 30.9041C78.8523 30.6535 76.9098 30.3783 74.9905 30.0802L75.2974 28.1039ZM86.8669 29.5794C88.7866 29.7712 90.726 29.9389 92.6843 30.0808L92.5398 32.0755C90.5631 31.9323 88.6056 31.7631 86.668 31.5695L86.8669 29.5794ZM98.5103 30.423C100.433 30.5096 102.372 30.5709 104.328 30.6055L104.292 32.6052C102.318 32.5702 100.361 32.5084 98.4203 32.421L98.5103 30.423ZM110.155 30.6291C112.085 30.6105 114.03 30.5655 115.988 30.4928L116.062 32.4914C114.085 32.5648 112.122 32.6102 110.174 32.629L110.155 30.6291ZM121.825 30.1958C123.746 30.0715 125.68 29.9201 127.626 29.7406L127.81 31.7321C125.846 31.9133 123.894 32.0661 121.954 32.1916L121.825 30.1958ZM133.419 29.1259C135.337 28.8958 137.265 28.6378 139.204 28.351L139.497 30.3295C137.54 30.619 135.593 30.8793 133.657 31.1117L133.419 29.1259ZM144.969 27.4173C146.865 27.0836 148.77 26.7219 150.683 26.3312L151.084 28.2907C149.152 28.6851 147.23 29.0502 145.316 29.3871L144.969 27.4173ZM156.381 25.087C158.267 24.6483 160.16 24.1811 162.061 23.6844L162.567 25.6194C160.649 26.1207 158.737 26.5922 156.834 27.0349L156.381 25.087ZM167.664 22.1402C169.517 21.6027 171.376 21.0369 173.242 20.4419L173.849 22.3473C171.967 22.9477 170.091 23.5187 168.221 24.061L167.664 22.1402ZM178.794 18.5894C180.61 17.9571 182.43 17.2968 184.255 16.6077L184.961 18.4787C183.12 19.1739 181.284 19.8401 179.452 20.4781L178.794 18.5894ZM189.687 14.476C191.478 13.7468 193.273 12.9894 195.071 12.2032L195.872 14.0358C194.058 14.8287 192.248 15.5927 190.442 16.3283L189.687 14.476ZM200.37 9.80787C202.124 8.98868 203.881 8.14166 205.641 7.26619L206.532 9.05689C204.757 9.93966 202.985 10.7938 201.216 11.6199L200.37 9.80787ZM210.82 4.6114C211.685 4.15509 212.55 3.6918 213.416 3.22148L214.37 4.97888C213.498 5.45302 212.626 5.92008 211.754 6.38014L210.82 4.6114Z" fill="#F9B253"/>
</g>
<defs>
<clipPath id="clip0_56_91">
<rect width="215" height="33" fill="white"/>
</clipPath>
</defs>
</svg>
