<svg width="215" height="33" viewBox="0 0 215 33" fill="none" xmlns="http://www.w3.org/2000/svg">
<g clip-path="url(#clip0_56_89)">
<path opacity="0.5" d="M214.177 29.8588C214.706 29.7021 215.009 29.1457 214.852 28.6161L212.298 19.9861C212.141 19.4566 211.585 19.1543 211.055 19.311C210.526 19.4678 210.223 20.0241 210.38 20.5537L212.65 28.2248L204.979 30.4951C204.45 30.6518 204.147 31.2082 204.304 31.7377C204.461 32.2673 205.017 32.5696 205.547 32.4128L214.177 29.8588ZM2.04947 31.7939C2.81447 31.2677 3.61229 30.7357 4.44226 30.1994L3.35675 28.5196C2.51123 29.066 1.6974 29.6086 0.916016 30.1461L2.04947 31.7939ZM9.40099 27.1705C11.0095 26.2396 12.7066 25.3035 14.4889 24.3685L13.5597 22.5974C11.7537 23.5449 10.0323 24.4943 8.39923 25.4394L9.40099 27.1705ZM19.7035 21.7567C21.4109 20.9401 23.1817 20.1291 25.0137 19.3281L24.2125 17.4956C22.36 18.3055 20.5685 19.126 18.8405 19.9525L19.7035 21.7567ZM30.39 17.0797C32.1554 16.3739 33.9692 15.6798 35.8296 15.0007L35.1439 13.122C33.2644 13.808 31.4317 14.5093 29.6475 15.2226L30.39 17.0797ZM41.3334 13.0834C43.1482 12.4807 45.002 11.8938 46.8934 11.3253L46.3177 9.40995C44.4079 9.98399 42.5359 10.5767 40.7031 11.1853L41.3334 13.0834ZM52.5037 9.72486C54.3564 9.22432 56.2413 8.74247 58.1573 8.28151L57.6895 6.337C55.7554 6.80232 53.8525 7.28876 51.9821 7.79408L52.5037 9.72486ZM63.8376 6.99725C65.7158 6.59961 67.6209 6.22281 69.5521 5.86877L69.1914 3.90155C67.2422 4.25891 65.3192 4.63924 63.4233 5.04062L63.8376 6.99725ZM75.2974 4.89619C77.1989 4.60086 79.1235 4.32822 81.0701 4.07995L80.8171 2.09602C78.8523 2.34661 76.9098 2.6218 74.9905 2.91988L75.2974 4.89619ZM86.8669 3.42072C88.7866 3.22886 90.726 3.06122 92.6843 2.91933L92.5398 0.924559C90.5631 1.06778 88.6056 1.23698 86.668 1.43063L86.8669 3.42072ZM98.5103 2.57712C100.433 2.49052 102.372 2.42922 104.328 2.39456L104.292 0.394867C102.318 0.429852 100.361 0.491731 98.4203 0.579139L98.5103 2.57712ZM110.155 2.37101C112.085 2.38962 114.03 2.43465 115.988 2.50732L116.062 0.508694C114.085 0.435335 112.122 0.389887 110.174 0.371094L110.155 2.37101ZM121.825 2.80433C123.746 2.92864 125.68 3.08 127.626 3.25953L127.81 1.26799C125.846 1.08677 123.894 0.933982 121.954 0.808501L121.825 2.80433ZM133.419 3.87419C135.337 4.10434 137.265 4.36228 139.204 4.64907L139.497 2.6706C137.54 2.38112 135.593 2.12075 133.657 1.88844L133.419 3.87419ZM144.969 5.58276C146.865 5.9165 148.77 6.27825 150.683 6.66894L151.084 4.70938C149.152 4.31504 147.23 3.94991 145.316 3.61304L144.969 5.58276ZM156.381 7.91315C158.267 8.35182 160.16 8.81904 162.061 9.3157L162.567 7.38067C160.649 6.87944 158.737 6.40789 156.834 5.96515L156.381 7.91315ZM167.664 10.8599C169.517 11.3974 171.376 11.9632 173.242 12.5582L173.849 10.6528C171.967 10.0524 170.091 9.48142 168.221 8.93909L167.664 10.8599ZM178.794 14.4107C180.61 15.043 182.43 15.7033 184.255 16.3924L184.961 14.5214C183.12 13.8262 181.284 13.16 179.452 12.522L178.794 14.4107ZM189.687 18.5241C191.478 19.2533 193.273 20.0107 195.071 20.7969L195.872 18.9643C194.058 18.1714 192.248 17.4074 190.442 16.6718L189.687 18.5241ZM200.37 23.1922C202.124 24.0114 203.881 24.8584 205.641 25.7339L206.532 23.9432C204.757 23.0604 202.985 22.2063 201.216 21.3802L200.37 23.1922ZM210.82 28.3887C211.685 28.845 212.55 29.3083 213.416 29.7786L214.37 28.0212C213.498 27.5471 212.626 27.08 211.754 26.62L210.82 28.3887Z" fill="#F9B253"/>
</g>
<defs>
<clipPath id="clip0_56_89">
<rect width="215" height="33" fill="white"/>
</clipPath>
</defs>
</svg>
